<svg width="16" height="16" viewBox="0 0 16 16" fill="none" xmlns="http://www.w3.org/2000/svg">
<mask id="path-1-inside-1_3_45" fill="white">
<path fill-rule="evenodd" clip-rule="evenodd" d="M5.00002 12C5.00002 12.5523 5.44773 13 6.00002 13H10C10.5523 13 11 12.5523 11 12V8.99999H12.6988C13.5732 8.99999 14.0265 7.95689 13.4299 7.31767L8.73107 2.28326C8.33574 1.85968 7.6643 1.85968 7.26896 2.28326L2.57018 7.31767C1.97358 7.95689 2.42686 8.99999 3.30124 8.99999H5.00002V12ZM6.00002 7.99999L3.30124 7.99999L8.00002 2.96558L12.6988 7.99999H10V12H6.00002V7.99999Z"/>
</mask>
<path d="M6.00002 7.99999H7.00002V6.99998L6.00002 6.99999L6.00002 7.99999ZM3.30124 7.99999L2.57018 7.31767L1.00002 8.99999L3.30124 8.99999L3.30124 7.99999ZM8.00002 2.96558L8.73107 2.28326L8.00002 1.49998L7.26896 2.28326L8.00002 2.96558ZM12.6988 7.99999V8.99999H15L13.4299 7.31767L12.6988 7.99999ZM10 7.99999V6.99999H9.00002V7.99999H10ZM10 12V13H11V12H10ZM6.00002 12H5.00002V13H6.00002V12ZM11 8.99999V7.99999H10V8.99999H11ZM13.4299 7.31767L14.1609 6.63535L14.1609 6.63535L13.4299 7.31767ZM8.73107 2.28326L9.46213 1.60094L9.46213 1.60094L8.73107 2.28326ZM7.26896 2.28326L8.00002 2.96558L8.00002 2.96558L7.26896 2.28326ZM2.57018 7.31767L1.83913 6.63535L1.83913 6.63535L2.57018 7.31767ZM5.00002 8.99999H6.00002V7.99999H5.00002V8.99999ZM7.26896 2.28326L2.57018 7.31767L4.03229 8.68231L8.73107 3.64789L7.26896 2.28326ZM13.4299 7.31767L8.73107 2.28326L7.26896 3.64789L11.9677 8.6823L13.4299 7.31767ZM6.00002 13H10V11H6.00002V13ZM4.00002 12C4.00002 13.1046 4.89545 14 6.00002 14V12H4.00002ZM6.00002 14H10V12H6.00002V14ZM10 14C11.1046 14 12 13.1046 12 12H10V14ZM12.6988 9.99999C14.4476 9.99999 15.3541 7.91379 14.1609 6.63535L12.6988 7.99999L12.6988 7.99999V9.99999ZM14.1609 6.63535L9.46213 1.60094L8.00002 2.96558L12.6988 7.99999L14.1609 6.63535ZM9.46213 1.60094C8.67145 0.753786 7.32858 0.75379 6.53791 1.60094L8.00002 2.96558L8.00002 2.96558L9.46213 1.60094ZM6.53791 1.60094L1.83913 6.63535L3.30124 7.99999L8.00002 2.96558L6.53791 1.60094ZM1.83913 6.63535C0.645911 7.9138 1.55248 9.99999 3.30124 9.99999V7.99999L3.30124 7.99999L1.83913 6.63535ZM3.30124 8.99999L6.00002 8.99999L6.00002 6.99999L3.30124 6.99999L3.30124 8.99999ZM10 8.99999H12.6988V6.99999H10V8.99999ZM11 12V7.99999H9.00002V12H11ZM5.00002 7.99999V12H7.00002V7.99999H5.00002ZM4.00002 8.99999V12H6.00002V8.99999H4.00002ZM12 12V8.99999H10V12H12ZM11 9.99999H12.6988V7.99999H11V9.99999ZM3.30124 9.99999H5.00002V7.99999H3.30124V9.99999Z" fill="currentColor" mask="url(#path-1-inside-1_3_45)"/>
</svg>
