<svg width="16" height="16" viewBox="0 0 16 16" fill="none" xmlns="http://www.w3.org/2000/svg">
<mask id="path-1-inside-1_3_41" fill="white">
<path fill-rule="evenodd" clip-rule="evenodd" d="M5.00002 4C5.00002 3.44772 5.44773 3 6.00002 3H10C10.5523 3 11 3.44772 11 4V7H12.6988C13.5732 7 14.0265 8.0431 13.4299 8.68232L8.73107 13.7167C8.33574 14.1403 7.6643 14.1403 7.26896 13.7167L2.57018 8.68232C1.97358 8.0431 2.42686 7 3.30124 7H5.00002V4ZM6.00002 8L3.30124 8L8.00002 13.0344L12.6988 8H10V4H6.00002V8Z"/>
</mask>
<path d="M6.00002 8L6.00002 9L7.00002 9V8H6.00002ZM3.30124 8L3.30124 7L1.00002 7L2.57018 8.68232L3.30124 8ZM8.00002 13.0344L7.26896 13.7167L8.00002 14.5L8.73107 13.7167L8.00002 13.0344ZM12.6988 8L13.4299 8.68232L15 7H12.6988V8ZM10 8H9.00002V9H10V8ZM10 4H11V3H10V4ZM6.00002 4V3H5.00002V4H6.00002ZM11 7H10V8H11V7ZM13.4299 8.68232L14.1609 9.36464L14.1609 9.36464L13.4299 8.68232ZM8.73107 13.7167L9.46213 14.399L9.46213 14.399L8.73107 13.7167ZM7.26896 13.7167L8.00002 13.0344L8.00002 13.0344L7.26896 13.7167ZM2.57018 8.68232L1.83913 9.36463L1.83913 9.36463L2.57018 8.68232ZM5.00002 7V8H6.00002V7H5.00002ZM8.73107 12.3521L4.03229 7.31768L2.57018 8.68232L7.26896 13.7167L8.73107 12.3521ZM11.9677 7.31768L7.26896 12.3521L8.73107 13.7167L13.4299 8.68232L11.9677 7.31768ZM6.00002 5H10V3H6.00002V5ZM6.00002 4V2C4.89545 2 4.00002 2.89543 4.00002 4H6.00002ZM6.00002 4H10V2H6.00002V4ZM10 4H12C12 2.89543 11.1046 2 10 2V4ZM12.6988 8L12.6988 8L14.1609 9.36464C15.3541 8.0862 14.4476 6 12.6988 6V8ZM12.6988 8L8.00002 13.0344L9.46213 14.399L14.1609 9.36464L12.6988 8ZM8.00002 13.0344L8.00002 13.0344L6.53791 14.399C7.32858 15.2462 8.67145 15.2462 9.46213 14.399L8.00002 13.0344ZM8.00002 13.0344L3.30124 8L1.83913 9.36463L6.53791 14.399L8.00002 13.0344ZM3.30124 8L3.30124 8V6C1.55248 6 0.645911 8.08619 1.83913 9.36463L3.30124 8ZM3.30124 9L6.00002 9L6.00002 7L3.30124 7L3.30124 9ZM10 9H12.6988V7H10V9ZM9.00002 4V8H11V4H9.00002ZM7.00002 8V4H5.00002V8H7.00002ZM6.00002 7V4H4.00002V7H6.00002ZM10 4V7H12V4H10ZM11 8H12.6988V6H11V8ZM3.30124 8H5.00002V6H3.30124V8Z" fill="currentColor" mask="url(#path-1-inside-1_3_41)"/>
</svg>
