<svg width="16" height="16" viewBox="0 0 16 16" fill="currentColor" xmlns="http://www.w3.org/2000/svg">
<path fill-rule="evenodd" clip-rule="evenodd" d="M4.09503 4L4.83054 12.0905C4.87736 12.6056 5.30923 13 5.82643 13H10.1736C10.6908 13 11.1226 12.6056 11.1695 12.0905L11.905 4H4.09503ZM14 3V4H12.9091L12.1654 12.1811C12.0717 13.2112 11.208 14 10.1736 14H5.82643C4.79202 14 3.92829 13.2112 3.83464 12.1811L3.09091 4H2V3H5.17068C5.22886 2.8354 5.301 2.67738 5.38567 2.52739C5.89639 1.62266 6.86317 1.00955 7.97395 1.00011C7.98261 1.00004 7.99129 1 7.99998 1C8.00978 1 8.01957 1.00005 8.02934 1.00014C9.13872 1.01078 10.1041 1.62357 10.6143 2.52738C10.699 2.67738 10.7711 2.83539 10.8293 3H14ZM7.99998 2C7.69693 2 7.40963 2.0674 7.15224 2.18803C6.78088 2.36207 6.47179 2.64692 6.26754 3H9.73241C9.52816 2.64692 9.21907 2.36207 8.84771 2.18803C8.59032 2.0674 8.30302 2 7.99998 2Z" fill="currentColor"/>
</svg>
